<svg aria-hidden="true" style="width:0;height:0;position:absolute;overflow:hidden" xmlns="http://www.w3.org/2000/svg"><defs><symbol id="icon-logo" viewBox="0 0 87 32"><path style="fill:var(--color1,#000)" d="m0 11.839 3.894 6.574 1.555-1.483-4.239-6.321z"/><path fill="#0071b9" style="fill:var(--color2,#0071b9)" d="m57.824 6.672-.151.867 1.863-.601-.232-1.062z"/><path style="fill:var(--color1,#000)" d="m46.971.753-5.994 6.873 1.744-.502 5.706-7.125z"/><path fill="#1d2c5e" style="fill:var(--color3,#1d2c5e)" d="m79.035 10.151 1.471-.784-.42 3.684zm-9.144 2.362 1.308.268 1.669-.81-1.449-.54z"/><path style="fill:var(--color1,#000)" d="m24.806 8.602.209 4.269 1.825-.737-.546-4.33zM71.306 7.328l-1.469.793.054 4.393 1.479-.758.464-2.126z"/><path fill="#312370" style="fill:var(--color4,#312370)" d="m71.105 12.793-1.618 14.369 2.586-.51.507-14.634z"/><path fill="#21386e" style="fill:var(--color5,#21386e)" d="m74.271 27.851.046 1.949 4.964 1.582 1.477-.783-4.871-3.773-4.934-.433-1.467.77zm-18.414-3.427 1.22-.657.778 1.437 1.15-.632.229 1.894 7.216 1.28 1.442-.793-9.951-6.063-7.059 1.21-1.377 1.309z"/><path style="fill:var(--color1,#000)" d="m53.559 6.745-1.445.795-2.61 15.867 1.462-.759 2.505-8.909z"/><path fill="#1d2c5e" style="fill:var(--color3,#1d2c5e)" d="m42.031 8.872-1.151.613.097.384 2.739-1.74-1.197-1.284-1.541.782z"/><path fill="#21386e" style="fill:var(--color5,#21386e)" d="M45.178 27.615 33.41 21.786l1.477-1.117 11.755 6.156z"/><path fill="#1d2c5e" style="fill:var(--color3,#1d2c5e)" d="m34.515 5.919-1.783 3.382 1.884-.571 1.36-3.604z"/><path style="fill:var(--color1,#000)" d="m18.34 19.89-1.505 1.033s.319 1.679.731 2.847c.414 1.172 1.399 2.113 1.399 2.113a5.401 5.401 0 0 0 2.235 1.312l.038.01c1.664.479 3.543.167 5.155-.861a9.782 9.782 0 0 0 1.346-1.031c-1.585.962-9.399-5.421-9.399-5.421z"/><path fill="#1d2c5e" style="fill:var(--color3,#1d2c5e)" d="m26.392 12.523 1.373 15.148 5.61-.83 1.501-.787-6.962-14.439-1.432.483-1.467.774z"/><path style="fill:var(--color1,#000)" d="M5.36 17.784 11.628 32l5.955-1.921 1.454-.977-12.36-12.933-1.547.927-1.235 1.317z"/><path fill="#1d2c5e" style="fill:var(--color3,#1d2c5e)" d="m67.482 24.491.084.698c.513-.058 1.052-.124 1.513-.288.538-.184 1.705-.704 2.149-1.087-.166.061-2.903.77-3.746.677zm-21.069-3.63.223 1.124c1.205-.179 2.24-.625 3.257-1.237.638-.38 1.339-.954 1.56-1.107-.156.1-5.041 1.22-5.041 1.22z"/><path fill="#ffcb05" style="fill:var(--color6,#ffcb05)" d="m13.257 30.652-.465-1.034-6.065-13.536-.45.208-1.058.519-.595-1.004-3.018-5.098 1.035-.656a22.85 22.85 0 0 1 3.287-1.715c2.395-1.02 4.839-1.56 7.068-1.56.733 0 1.443.059 2.109.175 1.111.127 2.139.491 2.987 1.057a6.562 6.562 0 0 1 2.823 3.102c.462 1.067.552 2.316.258 3.612l-.172.761.632-.459c.398-.292.85-.554 1.33-.767l.047-.019a6.62 6.62 0 0 1 2.586-.538 5.63 5.63 0 0 1 2.322.485l.461.207-.046-.503-.2-2.173-.032-.345-1.342.348-.177-3.701 7.375-2.356-.06 2.876.555.143 1.611-3.087 5.025 4.458.196-.185a7.546 7.546 0 0 1 2.328-1.481l.369-.151-.253-.309-.87-1.06L48.397.482l2.901 4.328-5.426 2.917 1.12.024c2.105.044 3.969.935 5.248 2.507l.462.57.298.366-.825.876-1.316 1.403.223.201 1.442 1.298.086-.534.399-2.47.102-.634.003.004.105-.648.596-3.646h5.566l.042-.246.104-.624h4.788l1.16 7.326.075.474.389-.282a6.613 6.613 0 0 1 1.498-.819l.046-.016a6.39 6.39 0 0 1 2.256-.421c.903 0 1.779.209 2.538.603.02.015.049.033.087.049l.36.144.042-.386.087-.798.028-.262-1.228-.274-.047-3.819 7.402 1.629.556 2.748.575.011.574-2.365 6.172 1.501-6.308 19.01-4.514-1.417-.032-1.751-.005-.251-4.753-.671.255-2.289.061-.545-.487.25a6.181 6.181 0 0 1-.665.294 6.311 6.311 0 0 1-2.242.419c-.217 0-.436-.012-.648-.036l-.385-.043.06.382.317 2.013-6.571-1.159-.344-2.988-.111-.958-.443.856-.757 1.459-1.812-3.344-.132.868-.303 1.99-5.759-.906.447-2.732.102-.626-.544.325c-.943.565-2.025.99-3.309 1.3a8.651 8.651 0 0 1-1.361.223l-.033.002-.27.023v5.426l-11.768-5.816V21l.008 4.794-5.071.747-.213-2.302-.058-.616-.442.433a7.255 7.255 0 0 1-2.243 1.511 6.532 6.532 0 0 1-2.566.536 5.544 5.544 0 0 1-2.414-.534c-1.367-.657-2.352-1.85-2.775-3.355a5.605 5.605 0 0 1-.163-2.22l.1-.816-.595.567a14.32 14.32 0 0 1-1.307 1.101l-.038.027-.16.118.051.193 1.708 6.557.302 1.164-1.144.364-4.293 1.376zm1.444-17.602c-.166 0-.337.015-.51.046l-.542.104.097.315.063.205.92 3.009.092.289.137.434.566-.504c.892-.801 1.204-1.615 1.016-2.641-.119-.616-.595-.922-.869-1.051a2.219 2.219 0 0 0-.97-.208zm24.656.098-.575.56-1.844 1.792 2.552.984-.103-.524a6.743 6.743 0 0 1-.136-1.369 7.1 7.1 0 0 1 .032-.672l-.002.028.076-.798zm6.611-1.673a2.274 2.274 0 0 0-1.978 3.376l-.006-.012.123.232.199.37.279-.313.18-.199 2.676-3.058-.649-.24a2.21 2.21 0 0 0-.824-.156z"/><path fill="#7d7f68" style="fill:var(--color7,#7d7f68)" d="M49.366 15.231a.356.356 0 0 0-.057.066l-.001.001.067-.057-.009-.01zM51.281 13.457l1.109-1.183-.38.403.011-.051-.336.354-1.108 1.18 1.038.934.188-1.163.517.463z"/><path fill="#7d7f68" style="fill:var(--color7,#7d7f68)" d="m51.281 13.457 1.04.936.398-2.47-.329.35zM37.473 15.39z"/><path fill="#c7a008" style="fill:var(--color8,#c7a008)" d="M43.614 16.417c.089.09.007.025.106.093l.678-.478a2.855 2.855 0 0 1-.294-.235l.002.002c-.984-.897-.729-2.915-.09-4.019-1.681 1.356-1.594 3.444-.403 4.637z"/><path fill="#c7a008" style="fill:var(--color8,#c7a008)" d="M51.804 17.546c-1.12.927-2.398 1.531-4.085 1.939a7.518 7.518 0 0 1-1.051.175l-.033.003c-2.678.263-4.926-.967-5.778-2.962a4.028 4.028 0 0 1-.244-.718l-.006-.029c-.394-1.68-.058-3.181.772-4.358.082-.114.169-.223.259-.334-.042.036-.086.067-.121.101a5.55 5.55 0 0 0-.83.919l-.011.016c-.831 1.177-1.168 2.679-.77 4.357.061.261.142.509.245.745.853 1.999 3.101 3.229 5.777 2.967.41-.04.78-.104 1.139-.194l-.054.011c1.689-.408 2.966-1.009 4.086-1.936.287-.238.546-.479.79-.735l.003-.004-.024-.023-.067.06zM32.927 12.468l2.993-4.205-.121-.112-2.887 4.056zm19.792-.544-.398 2.47-.517-.463-.188 1.163-1.038-.934 1.108-1.18.336-.354-.011.051.38-.403zm-3.698-6.927 1.048-.45-1.916-2.458-.628.877zM20.009 11.087c-4.837-5.892-13.552-2.725-16.685.031l.122.211a19.114 19.114 0 0 1 2.144-1.071l.134-.051c3.111-1.329 6.078-1.719 8.456-1.303.841.097 1.731.346 2.506.865 1.073.601 1.886 1.455 2.361 2.551.844 1.94.1 4.519-1.886 6.679 2.492-2.287 4.197-4.474 2.847-7.912zm9.868 6.864c-.023-.107-.045-.215-.08-.32a4.028 4.028 0 0 0-1.625-2.282c-1.242-.843-2.975-1.017-4.702-.287a6.498 6.498 0 0 0-2.324 1.72 6.356 6.356 0 0 1 1.581-.998l.041-.016c1.723-.732 3.457-.559 4.703.284a4.065 4.065 0 0 1 1.626 2.281 4.672 4.672 0 0 1 .173 1.46c-.036 1.128-.454 2.263-1.149 3.233-.112.154-.23.297-.352.438a6.562 6.562 0 0 0 1.038-1.124l.013-.019c.698-.963 1.115-2.101 1.152-3.236a4.618 4.618 0 0 0-.1-1.165l.005.03z"/><path fill="#c7a008" style="fill:var(--color8,#c7a008)" d="M25.114 16.513c-.007.011.702-.702.694-.702-.886-.034-1.261.802-1.292.868.174-.086.377-.145.591-.165l.007-.001zm1.669 1.022a1.245 1.245 0 0 1-.065.903l.003-.008c.142-.074 1.167-.571.769-1.624.021.032-.734.726-.708.729zm-4.032.586c0-.433.742-1.485.973-1.835-1.172.745-1.676 1.75-1.676 2.542 0 1.357 1.192 2.448 2.617 2.448.674 0 1.909-.357 2.717-1.664-.423.279-1.499.945-2.064.945-1.425 0-2.567-1.072-2.567-2.436zM32.781 19.363l.018 5.491.871.05-.172-6.259zM27.779 8.909l.018.488 4.13-1.23.306 5.259.689-.966-.147-5.278zm12.485 1.883-3.879-3.56-.464 1.03 3.414 3.208zM39.674 17.427l-4.554-1.506-.664.701 4.537 1.816c.515.97 1.294 1.8 2.276 2.407.95.581 2.037.929 3.187 1.04v2.241l.703.351.222-3.367-5.708-3.683zm7.314-.633c1.119-.27 1.764-.853 2.319-1.495-.417.342-2.506.797-2.857.916l-.688.733c.314.028.84-.057 1.226-.154zm-2.035-7.745c-2.063.27-3.137 2.002-3.315 2.212.762-.643 1.716-1.121 2.791-1.376 2.552-.617 4.803.161 6.193 1.881l.861-.729c-1.378-1.69-3.979-2.604-6.531-1.989zm6.918 8.438c.249-.209.691-.421.926-.667l-2.762-2.468c-.211.253-.403.67-.661.889l2.497 2.246zM66.043 24.1c-2.897-2.382-2.724-7.488-1.302-9.108l-1.277-8.004-2.792.36-.124.705h2.113l1.119 7.262c-1.424 1.625-2.111 3.803-1.636 5.796.368 1.541 1.314 2.787 2.677 3.509.137.075.278.141.423.202l.018.107.831.131s.086-.891-.05-.96zM54.907 8.165l-.12.705h3.185l.938 5.143.707-.714-.743-5.429zm5.452 9.984-1.028 2.656.255.691 1.471-4.045zm-3.053-1.673-.708.707-.759 4.797.727.278zM71.609 14.944c.421.301.768.674 1.031 1.106l.009.016c.205.331.368.715.467 1.123l.006.027c.347 1.442-.068 3.002-.985 4.253-.092.127-.194.25-.291.37.372-.32 4.896-3.657.476-8.039-4.861-1.602-6.701 1.569-6.873 1.77a6.044 6.044 0 0 1 1.707-1.029l.041-.014c1.645-.623 3.264-.407 4.412.416z"/><path fill="#c7a008" style="fill:var(--color8,#c7a008)" d="M69.158 15.26c.014.031.698-.713.712-.713-.865.036-1.28.453-1.238.646a1.16 1.16 0 0 0-.127.231c.185-.092.526-.163.653-.164zm1.626 1.087c.031.116.046.237.043.368-.01.17-.051.328-.118.471l.003-.008c.131-.059 1.18-.385.779-1.538.01.033-.72.708-.708.707zm-2.296 3.663c.978.042 2.06-.559 2.836-1.621-1.991.408-4.084-2.907-3.874-3.232-.752.545-1.418 1.597-1.449 2.332-.052 1.363 1.058 2.464 2.486 2.521zM79.399 28.648l.467.312 5.696-17.094-4.263-.985-.053 1.001 3.439.763zM72.635 9.049l.037.955 4.532.91 1.745 8.275.706-.712-1.662-8.36zm3.487 9.43-1.248 7.057.719.233 1.239-7.985zm-58.814 9.647-2.12-7.686-.776.543 1.965 7.363zM16.757 16.568c-.489.519-1.573 1.527-2.19 1.925l-.375-1.204-.821-2.64-.522-1.787-.509.654.52 1.79.821 2.638.373 1.208c.846-.545 2.075-1.567 2.703-2.583z"/><path fill="#7d7f68" style="fill:var(--color7,#7d7f68)" d="M46.794 12.024c-.669-.257-1.617-.18-2.128.38-.119.13-.35.461-.423.609.495-.394 1.377-.479 1.955-.27l.596-.719zm-30.648 2.385c-.075-.395-.462-.709-.652-.796-.339-.164-.927-.189-1.355-.111.077.266.165.578.203.706.174.024.46.076.609.144.188.091.517.304.594.702.102.531.075 1.027-.146 1.43.607-.595.901-1.243.747-2.075z"/><path fill="#3c5aa6" style="fill:var(--color9,#3c5aa6)" d="M17.208 14.398c-.291-1.562-2.334-2.423-4.359-1.319l.522 1.788.821 2.642.375 1.203c1.519-.977 3.047-2.151 2.641-4.315zM15.196 16.8c-.221-.722-.706-2.28-.706-2.28.002.007-.096-.334-.211-.723.429-.077.842-.046 1.181.118.19.09.523.301.596.701.168.898-.135 1.54-.86 2.186z"/><path fill="#3567b0" style="fill:var(--color10,#3567b0)" d="M47.855 11.919a2.776 2.776 0 0 0-3.925.173 2.773 2.773 0 0 0 .468 4.157l3.652-4.136a3.918 3.918 0 0 0-.194-.193l-.002-.002zm-3.449 2.909a1.793 1.793 0 0 1 2.233-2.528l-.012-.004-2.221 2.532z"/><path fill="#1e2d5f" style="fill:var(--color11,#1e2d5f)" d="m52.734 11.465-2.022 1.949 1.921 1.725z"/><path fill="#3466af" style="fill:var(--color12,#3466af)" d="M71.487 15.64c.031.123.047.244.043.373-.034.773-.76 1.369-1.626 1.329-.865-.03-1.545-.687-1.511-1.457.029-.723.673-1.294 1.468-1.331a2.485 2.485 0 0 0-.469-.058h-.004c-1.449-.063-2.632.963-2.682 2.241-.056 1.366 1.039 2.48 2.465 2.541 1.45.058 2.634-.972 2.691-2.331a2.233 2.233 0 0 0-.374-1.307z"/><path style="fill:var(--color1,#000)" d="M27.544 17.2c0 .776-.706 1.398-1.57 1.398-.867 0-1.57-.622-1.57-1.398 0-.723.619-1.319 1.411-1.389a2.582 2.582 0 0 0-.473-.043c-1.448 0-2.591 1.074-2.591 2.353 0 1.365 1.143 2.436 2.567 2.436 1.45 0 2.591-1.071 2.591-2.436a2.154 2.154 0 0 0-.429-1.29l.004.006c.036.11.058.233.058.363z"/><path style="fill:var(--color1,#000)" d="m80.497 9.363-.643 2.651-.594-2.935-7.953-1.751.056 4.422 1.199.269-.086.798c-.016-.006-.025-.016-.034-.022-1.486-.784-3.328-.864-5.061-.21a6.968 6.968 0 0 0-1.631.884l.02-.014-1.2-7.574h-5.289l-.146.871h-5.567l-.636 3.894-.462-.57c-1.349-1.657-3.305-2.57-5.471-2.616l4.727-2.541L48.43 0l-5.955 6.862 1.028 1.253a7.824 7.824 0 0 0-2.418 1.539l-5.106-4.53-1.785 3.422.069-3.288-7.983 2.55.205 4.289 1.358-.352.201 2.174c-1.552-.697-3.417-.68-5.147.051a7.679 7.679 0 0 0-1.453.832l.022-.015c.299-1.324.228-2.63-.276-3.794a6.825 6.825 0 0 0-2.93-3.23c-.901-.6-1.975-.974-3.099-1.102-2.762-.483-6.079.013-9.344 1.404-1.2.512-2.32 1.093-3.329 1.736l-1.276.809.771 1.302 2.392 4.043s.732 1.239.737 1.238l1.293-.636.18-.083 6.517 14.54 1.327-.427 4.625-1.478-.372-1.435-1.708-6.556c.508-.377.956-.755 1.379-1.159l-.006.005a5.922 5.922 0 0 0 .17 2.336c.447 1.589 1.487 2.845 2.932 3.541 1.56.75 3.463.752 5.224.005a7.604 7.604 0 0 0 2.334-1.572l.243 2.611 5.632-.829-.009-5.05 11.767 5.816v-5.631a9.326 9.326 0 0 0 1.502-.246l-.064.014c1.296-.313 2.405-.743 3.391-1.333l-.494 3.024 6.345.998.348-2.283 1.657 3.061 1.013-1.952.37 3.205 7.193 1.268-.382-2.42a6.519 6.519 0 0 0 3.025-.399c.281-.106.51-.21.732-.326l-.036.017-.287 2.575 4.788.676.036 1.963 4.992 1.567 6.5-19.591-6.768-1.645zM52.39 12.274l.33-.351-.399 2.47-1.04-.937 1.108-1.183zM48.174 2.185l1.743 2.368-4.983 2.47-.344-.523 3.584-4.315zM15.178 20.442l1.988 7.628-3.218 1.028-6.603-14.746c-.359.189-1.022.505-1.631.804l-2.391-4.039a20.907 20.907 0 0 1 3.103-1.614c3.113-1.324 6.083-1.719 8.458-1.299.84.095 1.73.342 2.509.859 1.069.602 1.887 1.459 2.358 2.55 1.15 2.657-.771 6.482-4.573 8.828zm14.793-1.358c-.037 1.136-.454 2.274-1.152 3.236a6.48 6.48 0 0 1-2.642 2.153l-.041.016c-2.791 1.183-5.583 0-6.329-2.65-.723-2.563.959-5.613 3.663-6.778 1.727-.729 3.461-.556 4.702.287a4.033 4.033 0 0 1 1.625 2.282c.034.104.057.213.08.32a4.561 4.561 0 0 1 .094 1.143v-.009zm15.189 5.393-11.676-5.84.021 6.119-3.02.412-.21-2.522c.933-1.599 1.274-3.484.787-5.212a5.476 5.476 0 0 0-1.431-2.435l-.433-5.142-1.356.352-.06-1.3 4.85-1.444.297 5.003 3.573-5.021 3.493 3.327-4.885 5.146 4.589 1.815a6.303 6.303 0 0 0 2.276 2.405c.949.585 2.035.932 3.185 1.045l.001 3.292zm-6.063-8.46-1.624-.627 1.514-1.472a7.261 7.261 0 0 0 .11 2.098zm12.707 1.529c-1.12.927-2.398 1.531-4.085 1.939a7.518 7.518 0 0 1-1.051.175l-.033.003c-2.678.263-4.926-.967-5.778-2.962a4.028 4.028 0 0 1-.244-.718l-.006-.029c-.394-1.68-.058-3.182.772-4.358.25-.353.527-.661.836-.933l.006-.005c.782-.698 1.78-1.205 2.915-1.477 2.552-.615 4.799.164 6.176 1.854L46.45 16.21c.33.062.854-.024 1.241-.117 1.158-.282 1.806-.897 2.377-1.567l2.532 2.28c-.249.257-.508.499-.779.728l-.016.013zm10.315 6.907-1.058-7.006-1.496 3.865-2.24-4.831H57.3l-.885 5.594-3.733-.65.525-3.122c.141-.132.279-.265.416-.405l1.21-1.246-1.176-1.053 1.249-7.434h3.766l.943 5.146 1.056-5.964h2.694l1.118 7.266c-1.423 1.62-2.114 3.799-1.638 5.792.368 1.545 1.317 2.789 2.678 3.516.137.069.279.137.425.196l.142.942-3.973-.607zm9.302-2.283c-.39.283-.836.526-1.312.708l-.04.013c-.961.366-1.918.442-2.77.273a4.145 4.145 0 0 1-1.619-.692l.013.009c-.749-.542-1.301-1.343-1.544-2.348-.284-1.208-.022-2.497.627-3.627a6.512 6.512 0 0 1 1.231-1.518 6.145 6.145 0 0 1 1.85-1.152l.041-.015c1.646-.614 3.269-.402 4.412.419.419.302.768.674 1.035 1.102l.01.016c.203.331.364.715.463 1.124l.006.027c.35 1.45-.067 3.003-.982 4.255a6.359 6.359 0 0 1-1.402 1.392l-.019.013zm8.406 6.604-2.76-.822-.241-10.177-1.388 7.851-3.011-.481.216-2.26c1.966-1.662 3.009-4.283 2.438-6.658a5.223 5.223 0 0 0-1.554-2.664l.254-2.666-1.139-.303.076-1.423 5.188 1.043 1.745 8.273 1.789-7.417 3.947.872-5.559 16.833zM82.095 29.738v-.768h-.287v-.103h.691v.103h-.288v.768zm.519 0v-.871h.173l.206.617c.019.058.033.1.041.129l.047-.14.208-.606h.155v.871h-.111v-.729l-.253.729h-.104l-.252-.742v.742z"/></symbol><symbol id="icon-search" viewBox="0 0 32 32"><path d="M5.333 14.667a9.333 9.333 0 1 1 18.666 0 9.333 9.333 0 1 1-18.666 0zm9.334-12c-6.627 0-12 5.373-12 12s5.373 12 12 12a11.95 11.95 0 0 0 7.49-2.624l4.9 4.9a1.333 1.333 0 1 0 1.886-1.886l-4.9-4.9a11.95 11.95 0 0 0 2.624-7.49c0-6.627-5.373-12-12-12z"/></symbol></defs></svg>